<?xml version="1.0" encoding="UTF-8" standalone="no"?>
<svg width="257.24" xmlns="http://www.w3.org/2000/svg" height="307">
 <g id="Layer_1" transform="rotate(90.33 46.119 155.06)">
  <path id="path7" fill-rule="evenodd" d="m256.32 263.05s0.63147 2.7284 0.56058 5.5987c-0.067627 2.8125-0.84082 8.9586-0.84082 7.5589s-2.5175-3.1488-2.5175-3.1488l-0.3512 2.4482-1.9586 0.0709-0.0692-3.9204-59.418-26.943s-0.06926-3.3599-0.34952-3.4291c-0.069229 3.3582 0.14015 5.5987-0.28026 5.8774-0.55888-0.20938-65.758-29.161-67.184-29.954-0.62978-0.34952-0.28027-3.2181-0.28027-3.2181l-16.796-2.5191-0.0692 2.2388s-35.343-4.9689-36.322-4.3392c-0.97929 0.62979 0.91167 38.632-0.76992 64.387-1.6799 25.753-4.5486 39.61-5.8081 44.579-1.1755 4.6376-0.20937 5.668 2.0294 7.6282s47.238 35.274 51.018 38.142c3.711 2.8175 3.7803 4.105 3.7803 5.808 0 2.2388 0.069229 17.006 0.069229 17.006l-62.636-15.256s-0.35115 6.2268-1.2595 7.1369c-0.9117 0.91171-2.7994 0.56055-2.7994 0.56055s-1.2612 12.948-1.9585 13.787c-0.70067 0.83914-1.8893 1.2595-1.8893 1.2595s-2.7928 13.352-4.077 13.702v0.01651c-0.009888 0-0.019798-0.006592-0.02639-0.00827-0.009884 0.001678-0.019772 0.00827-0.026363 0.00827v-0.01651c-1.2843-0.34946-4.0787-13.702-4.0787-13.702s-1.1903-0.42035-1.8893-1.2595c-0.69902-0.84082-1.9586-13.787-1.9586-13.787s-1.8893 0.35117-2.7994-0.56055c-0.91004-0.91003-1.2596-7.1369-1.2596-7.1369l-62.636 15.256s0.069241-14.767 0.069241-17.006c0-1.703 0.069242-2.9906 3.7786-5.808 3.7786-2.8686 48.779-36.182 51.018-38.142 2.2388-1.9602 3.2049-2.9906 2.0294-7.6282-1.2596-4.9689-4.1281-18.826-5.8081-44.579-1.68-25.755 0.20937-63.757-0.76991-64.387-0.97928-0.62976-36.322 4.3392-36.322 4.3392l-0.0692-2.2388-16.796 2.5191s0.34951 2.8686-0.28026 3.2181c-1.426 0.79297-66.626 29.744-67.184 29.954-0.4204-0.28027-0.20938-2.5191-0.28027-5.8774-0.28027 0.069275-0.3495 3.4291-0.3495 3.4291l-59.42 26.943-0.0692 3.9204-1.9586-0.0709-0.3495-2.4482s-2.5191 1.7508-2.5191 3.1488-0.77156-4.7464-0.83916-7.5589c-0.069244-2.8686 0.56053-5.5987 0.56053-5.5987s-2.0294 0.62976-1.8201-2.0294c0.13518-1.6964 5.3893-9.4466 5.3893-9.4466s0.37259-1.1623 0.30829-1.9833c-0.074188-0.95456 1.0897-1.5695 1.7047-2.1152 0.35609-0.31488-0.037918-2.0459-0.037918-2.0459s19.69-16.884 53.804-43.334c34.059-26.408 74.369-58.786 74.369-58.786s0-1.8662-0.37258-4.4793c-0.37423-2.6114-0.65286-3.7325-0.65286-3.7325s-2.0525-0.65286-2.6131-2.3328c-0.4171-1.253-1.492-10.358-1.3057-18.57 0.1863-8.2118 0.65286-12.503 1.2134-13.81 0.55889-1.3057 2.4515-1.8844 4.8519-2.2388 2.5191-0.37259 12.295-0.14178 14.65 0.1863 2.2355 0.31158 3.6402 0.65286 4.0127 3.8264 0.37258 3.172 0.46657 14.089 0.18629 18.568-0.19947 3.1884-1.0271 6.8121-0.56052 6.9984 0.46656 0.18628 8.5844-7.7452 13.064-10.917 4.4793-3.1736 12.13-9.7978 13.064-11.85 0.93312-2.0525 1.0271-2.3328 1.586-0.46657 0.55889 1.8662 0.46656 3.7325-0.28026 5.0382-0.74683 1.3057-1.1194 2.9873-0.37423 3.7325 0.28026 0.28026 2.5191-1.586 3.0796-2.707 0.56052-1.1194 0-3.2659 0.37423-4.199 0.37424-0.93312 1.8349-3.6402 1.7723-5.879-0.3726-13.344-0.82596-33.312-0.93312-76.982-0.11375-46.732 0.3495-60.692 6.2516-85.661 5.358-22.665 9.3839-27.148 11.445-30.417 1.9058-3.0219 6.207-5.3696 8.0073-5.4108v-0.003296c0.006592 0 0.016502 0.001648 0.02639 0.001648 0.006588 0 0.016476-0.001648 0.026363-0.001648v0.003296c1.7986 0.041214 6.0982 2.3905 8.0041 5.4108 2.0608 3.2676 6.085 7.7518 11.445 30.417 5.902 24.968 6.3653 38.929 6.2516 85.661-0.10551 43.67-0.56052 63.64-0.93311 76.982-0.060997 2.2388 1.4013 4.9459 1.7739 5.879 0.37261 0.93312-0.18628 3.0796 0.37425 4.199 0.55888 1.1194 2.7977 2.9873 3.078 2.707 0.74683-0.74683 0.37424-2.4268-0.37424-3.7325-0.74846-1.3057-0.84078-3.1719-0.28026-5.0382 0.56052-1.8662 0.65285-1.586 1.5876 0.46657 0.93147 2.0525 8.5844 8.6783 13.064 11.85 4.4793 3.1719 12.597 11.104 13.064 10.917 0.46654-0.18631-0.36106-3.81-0.56052-6.9984-0.28029-4.4793-0.1863-15.396 0.18628-18.568 0.37259-3.1719 1.7772-3.5132 4.0128-3.8264 2.3559-0.32973 12.13-0.55888 14.651-0.1863 2.3988 0.35611 4.293 0.93312 4.8519 2.2388 0.56052 1.3057 1.0271 5.5987 1.2134 13.81 0.18464 8.2118-0.89024 17.317-1.3074 18.57-0.56052 1.68-2.613 2.3328-2.613 2.3328s-0.28029 1.1194-0.65287 3.7325c-0.37422 2.6131-0.37422 4.4793-0.37422 4.4793s40.31 32.38 74.368 58.786c34.115 26.45 53.806 43.334 53.806 43.334s-0.39564 1.731-0.037903 2.0459c0.61493 0.54568 1.7788 1.1606 1.703 2.1152-0.064301 0.82101 0.30827 1.9833 0.30827 1.9833s5.2558 7.7502 5.391 9.4466c0.20608 2.6592-1.8234 2.0294-1.8234 2.0294zm-408.18-19.632l-3.9451 3.0236 0.3413 0.4451 3.9798-3.05-0.3759-0.4187zm7.9117-6.0636l-7.4666 5.7224 0.3742 0.4188 7.4353-5.6993-0.3429-0.4418zm7.9282-6.0768l-7.4831 5.7355 0.3429 0.4435 7.4369-5.6993-0.2968-0.4798zm9.989-7.6545l-9.5422 7.3133 0.2968 0.4797 9.5752-7.3397-0.3297-0.4534zm9.2108-7.0577l-8.7674 6.7165 0.3297 0.4534 8.7756-6.7264-0.338-0.4435zm9.3114-7.1352l-8.8663 6.794 0.3396 0.4468 8.8498-6.7824-0.3231-0.4583zm9.6279-7.3809l-9.1845 7.0396 0.3231 0.4567 9.2438-7.0841-0.3825-0.4121zm9.717-7.4468l-9.2702 7.1055 0.3808 0.4122 9.2075-7.0561-0.3182-0.4616zm9.6362-7.3842l-9.191 7.0429 0.3182 0.4616 9.1597-7.0215-0.2869-0.4831zm9.5653-7.3314l-9.1185 6.9868 0.2869 0.4863 9.1515-7.0132-0.3198-0.46zm9.196-7.0462l-8.7509 6.7033 0.3198 0.46 8.7657-6.7165-0.3347-0.4468zm9.1861-7.0396l-8.741 6.6984 0.3363 0.4467 8.6932-6.662-0.2885-0.4831zm10.823-8.2975l-10.376 7.953 0.2885 0.4847 10.329-7.915-0.2407-0.5226zm2.8307-2.1679l-2.374 1.8201 0.2391 0.521 2.3559-1.8069-0.2209-0.5342zm8.8663-6.7939l-8.4047 6.4412 0.2209 0.5358 8.525-6.5335-0.3413-0.4435zm148.34 0l-0.3413 0.4451 8.5267 6.5335 0.2193-0.5358-8.4047-6.4428zm8.8646 6.7939l-0.2193 0.5358 2.3575 1.8069 0.239-0.5209-2.3773-1.8217zm2.8323 2.1679l-0.2407 0.5226 10.33 7.915 0.2868-0.4847-10.376-7.953zm10.823 8.2975l-0.2885 0.4847 8.6932 6.6621 0.3363-0.4468-8.741-6.7zm9.1861 7.0396l-0.3363 0.4468 8.7657 6.7165 0.3182-0.46-8.7476-6.7033zm9.196 7.0462l-0.3198 0.46 9.1515 7.0132 0.2868-0.4863-9.1185-6.9868zm9.5636 7.3314l-0.2868 0.4847 9.1614 7.0215 0.3182-0.4616-9.1927-7.0446zm9.6378 7.3842l-0.3182 0.46 9.2059 7.0561 0.3825-0.4121-9.2702-7.1039zm9.717 7.4468l-0.3808 0.4121 9.2438 7.0841 0.3215-0.4567-9.1845-7.0396zm9.628 7.3809l-0.3215 0.4567 8.8498 6.7824 0.338-0.4467-8.8663-6.7923zm9.3114 7.1352l-0.338 0.4451 8.7756 6.7264 0.3281-0.4534-8.7657-6.7181zm9.2108 7.0577l-0.3281 0.4517 9.5768 7.3397 0.2968-0.4798-9.5455-7.3116zm9.989 7.6545l-0.2967 0.4781 7.4369 5.6993 0.3429-0.4435-7.4831-5.7339zm7.9282 6.0768l-0.3429 0.4418 7.4353 5.6993 0.3759-0.4188-7.4682-5.7224zm7.9134 6.0636l-0.3759 0.4187 3.9798 3.05 0.3396-0.4451-3.9435-3.0236z"/>
 </g>
</svg>
